<svg xmlns="http://www.w3.org/2000/svg" viewBox="0 0 512 512">
  <defs>
    <radialGradient id="dhpGradient" cx="50%" cy="20%" r="80%">
      <stop offset="0%" style="stop-color:#F5C842"/>
      <stop offset="40%" style="stop-color:#F57C42"/>
      <stop offset="70%" style="stop-color:#E84545"/>
      <stop offset="100%" style="stop-color:#E53E3E"/>
    </radialGradient>
  </defs>
  <!-- Circular background with gradient -->
  <circle cx="256" cy="256" r="240" fill="url(#dhpGradient)" stroke="none"/>
  
  <!-- Wave patterns representing the DHP flowing design -->
  <path d="M450 235c-45 25-95 42-145 52-35 7-75 10-115 8-28-2-55-7-82-16-22-7-45-17-65-30l18 75c28 22 60 40 98 50 42 11 88 13 135 7 50-7 100-23 150-45z" fill="white" opacity="0.95"/>
  
  <path d="M375 270c-32 18-65 30-102 37-28 5-55 5-82 2-22-2-45-8-65-17l14 55c22 13 47 22 75 27 32 5 65 4 97-2 37-7 72-19 105-35z" fill="white" opacity="0.9"/>
  
  <path d="M315 305c-22 10-45 17-72 22-18 3-37 3-55 1-14-1-28-5-40-10l8 35c13 7 30 11 48 12 22 2 45 0 68-4 27-5 50-13 72-24z" fill="white" opacity="0.85"/>
</svg>
