<?xml version="1.0" encoding="utf-8"?>
<svg xmlns="http://www.w3.org/2000/svg" width="116" height="72" viewBox="0 0 116 72" fill="none">
  <g clip-path="url(#clip0_7821_196958)">
    <path d="M58.0064 0.643555C48.6149 0.643555 40.9922 8.30112 40.9922 17.7355C40.9922 27.1856 48.6149 34.8274 58.0064 34.8274C67.3978 34.8274 75.0205 27.1699 75.0205 17.7355C75.0205 8.2854 67.3978 0.643555 58.0064 0.643555Z" fill="url(#paint0_linear_7821_196958)"/>
    <mask id="mask0_7821_196958" style="mask-type:alpha" maskUnits="userSpaceOnUse" x="40" y="0" width="36" height="35">
      <path d="M58.0083 0.645508C48.6169 0.645508 40.9941 8.30308 40.9941 17.7375C40.9941 27.1876 48.6169 34.8294 58.0083 34.8294C67.3998 34.8294 75.0225 27.1718 75.0225 17.7375C75.0225 8.28735 67.3998 0.645508 58.0083 0.645508Z" fill="white"/>
    </mask>
    <g mask="url(#mask0_7821_196958)">
      <path d="M47.0671 34.9236C47.0671 34.9236 41.1505 26.354 55.2376 20.4733C57.382 19.577 66.6169 16.5108 77.3545 18.0675C77.7145 18.1147 54.3768 21.4324 63.1421 34.8764H57.8203C57.8203 34.8764 48.7732 21.3***REMOVED*** 76.0867 18.0989C76.5249 18.0518 64.2691 17.2813 57.3977 22.5331C57.3977 22.5331 48.0375 27.9736 52.8115 34.9079L47.0671 34.9236Z" fill="white"/>
    </g>
    <path d="M75.0685 17.7368C75.0685 27.2026 67.4302 34.8759 58.0074 34.8759C48.5847 34.8759 40.9463 27.2026 40.9463 17.7368C40.9463 8.27095 48.5847 0.597656 58.0074 0.597656C67.4302 0.597656 75.0685 8.27095 75.0685 17.7368Z" stroke="white"/>
    <path d="M6.76184 55.5682H0.594792C0.250439 55.5682 0 55.3166 0 54.9707V36.2591C0 35.9132 0.250439 35.6616 0.594792 35.6616H6.77749C11.3167 35.6616 15.2454 38.146 15.2454 45.5677C15.2298 52.9894 11.301 55.5682 6.76184 55.5682ZM6.49575 39.0266H3.89745V52.219H6.49575C9.4071 52.219 11.3167 50.4422 11.3167 45.5834C11.301 40.6776 9.39145 39.0266 6.49575 39.0266Z" fill="white"/>
    <path d="M17.249 36.385C17.249 35.3001 18.1412 34.4038 19.2212 34.4038C20.3012 34.4038 21.1934 35.3001 21.1934 36.385C21.1934 37.47 20.3012 38.3662 19.2212 38.3662C18.1569 38.382 17.249 37.47 17.249 36.385ZM20.5517 55.5683H17.8908C17.5464 55.5683 17.296 55.3167 17.296 54.9708V41.2437C17.296 40.8978 17.5464 40.6462 17.8908 40.6462H20.5517C20.896 40.6462 21.1465 40.8978 21.1465 41.2437V54.9708C21.1465 55.3167 20.896 55.5683 20.5517 55.5683Z" fill="white"/>
    <path d="M28.4564 55.8827C26.2025 55.8827 24.6842 55.2066 23.9799 54.7663C23.3851 54.4204 23.2129 54.0902 23.2129 53.587V52.0304C23.2129 51.5587 23.4007 51.3542 23.7451 51.3542C23.9642 51.3542 24.152 51.4171 24.4181 51.5744C25.1538 51.9832 26.4842 52.7537 28.0025 52.7537C29.0825 52.7537 30.1626 52.5021 30.1626 51.2284C30.1626 50.112 29.4582 49.6403 27.9086 49.3416C25.6234 48.8699 23.432 47.8478 23.432 44.9703C23.432 41.967 25.9051 40.3789 28.5973 40.3789C30.6634 40.3789 31.9939 40.9921 32.6826 41.401C33.2774 41.7783 33.4809 42.0771 33.4809 42.5803V44.074C33.4809 44.5458 33.293 44.7502 32.9174 44.7502C32.6982 44.7502 32.5104 44.6873 32.2756 44.53C31.5713 44.0898 30.726 43.3507 29.0669 43.3507C27.9869 43.3507 27.1573 43.6967 27.1573 44.8131C27.1573 45.7093 27.8617 46.2125 29.2234 46.4955C31.9469 47.0616 33.9504 48.0837 33.9504 51.0869C33.9191 54.3261 31.3208 55.8827 28.4564 55.8827Z" fill="white"/>
    <path d="M46.472 54.8608C45.8302 55.2696 44.3433 55.8828 42.3085 55.8828C37.8006 55.8828 35.1396 52.9896 35.1396 48.1309C35.1396 43.2565 37.8006 40.3633 42.3085 40.3633C44.3433 40.3633 45.8302 40.9608 46.472 41.3853C47.0668 41.7942 47.239 42.0929 47.239 42.5961V43.9641C47.239 44.4358 47.0824 44.7031 46.7068 44.7031C46.4876 44.7031 46.***REMOVED*** 44.6088 46.0024 44.4515C45.2981 44.0741 44.0928 43.6181 42.7624 43.6181C40.5084 43.6181 38.9588 44.9547 38.9588 48.1152C38.9588 51.2757 40.5084 52.6122 42.7624 52.6122C44.0928 52.6122 45.2981 52.1405 46.0024 51.7789C46.3155 51.6216 46.5033 51.5273 46.7068 51.5273C47.0824 51.5273 47.239 51.8103 47.239 52.2663V53.6343C47.239 54.1375 47.0668 54.4834 46.472 54.8608Z" fill="white"/>
    <path d="M55.5664 55.8828C51.2463 55.8828 48.335 53.084 48.335 48.1309C48.335 43.1621 51.2463 40.3633 55.5664 40.3633C59.8552 40.3633 62.7665 43.1621 62.7665 48.1309C62.7665 53.084 59.8708 55.8828 55.5664 55.8828ZM55.5664 43.6181C53.5003 43.6181 52.1698 44.9547 52.1698 48.1152C52.1698 51.2757 53.5003 52.6122 55.5664 52.6122C57.6012 52.6122 58.9317 51.2757 58.9317 48.1152C58.9473 44.9547 57.6169 43.6181 55.5664 43.6181Z" fill="white"/>
    <path d="M76.9782 42.4704L71.9694 55.0024C71.8442 55.3483 71.6564 55.5684 71.3277 55.5684H68.7294C68.385 55.5684 68.1972 55.3483 68.0876 55.0024L63.0788 42.4704C62.891 41.9986 62.6719 41.6055 62.6719 41.2282C62.6719 40.9137 62.9223 40.6621 63.2354 40.6621H65.8963C66.3032 40.6621 66.4911 40.8508 66.6006 41.1967L69.0424 48.1153C69.3868 49.043 69.8407 50.411 69.8407 50.6625C69.8407 50.8827 69.9033 50.977 70.0285 50.977C70.1537 50.977 70.2163 50.8827 70.2163 50.6625C70.2163 50.411 70.7172 48.9801 71.0146 48.1153L73.4564 41.1967C73.5816 40.8822 73.8007 40.6621 74.1608 40.6621H76.8217C77.1347 40.6621 77.3852 40.9137 77.3852 41.2282C77.3852 41.6055 77.166 42.0144 76.9782 42.4704Z" fill="white"/>
    <path d="M90.0957 48.7756H81.1112C81.1112 51.543 82.5669 52.8481 85.4939 52.8481C86.9182 52.8481 87.9669 52.4078 88.5148 52.172C88.9217 51.9833 89.3757 51.7946 89.5948 51.7946C89.9391 51.7946 90.127 52.0462 90.127 52.4707V53.1469C90.127 53.7444 90.0017 54.2004 89.6261 54.4519C88.5774 55.1595 86.9339 55.8828 84.3982 55.8828C79.5146 55.8828 77.292 52.6594 77.292 48.1309C77.292 43.6024 79.7025 40.3633 84.1791 40.3633C87.92 40.3633 90.2678 42.3445 90.2678 46.5428C90.2835 47.156 90.2522 48.068 90.0957 48.7756ZM84.2573 43.0364C82.1912 43.0364 81.346 44.3729 81.1738 46.6371H86.793C86.8243 46.2912 86.8556 45.9925 86.8556 45.7094C86.8556 43.9641 85.7443 43.0364 84.2573 43.0364Z" fill="white"/>
    <path d="M100.082 40.6147C100.943 40.6147 101.897 41.055 101.897 41.7311V44.6558C101.897 45.0017 101.678 45.2219 101.334 45.2219C101.115 45.2219 100.927 45.1275 100.739 45.0017C100.301 44.7187 99.9095 44.4357 99.0956 44.4357C97.8904 44.4357 96.873 45.0489 96.3095 45.5206V54.9864C96.3095 55.3324 96.059 55.5839 95.7147 55.5839H93.0538C92.7094 55.5839 92.459 55.3324 92.459 54.9864V41.2594C92.459 40.9135 92.7094 40.6619 93.0538 40.6619H94.5721C95.6208 40.6619 96.2782 41.4009 96.2782 42.2186V42.4387C97.1703 41.4481 98.626 40.6147 100.082 40.6147Z" fill="white"/>
    <path d="M108.534 62.4869C107.939 62.4869 106.953 62.424 106.186 62.2353C105.231 62.0151 104.793 61.7636 104.793 61.3076V59.3263C104.793 58.949 104.949 58.7603 105.294 58.7603C105.513 58.7603 105.763 58.8546 106.186 59.0119C106.656 59.1691 107.266 59.2949 108.315 59.2949C111.289 59.2949 112.181 57.864 112.181 54.9236V54.0588C111.445 54.6249 109.989 55.7727 107.516 55.7727C104.542 55.7727 103.165 54.0903 103.165 50.8983V41.2752C103.165 40.9293 103.415 40.6777 103.76 40.6777H106.421C106.765 40.6777 107.016 40.9293 107.016 41.2752V50.458C107.016 51.8889 107.751 52.4393 108.925 52.4393C110.663 52.4393 112.196 51.7002 112.196 51.7002V41.2752C112.196 40.9293 112.447 40.6777 112.791 40.6777H115.452C115.797 40.6777 116.047 40.9293 116.047 41.2752V54.9079C116 59.9553 113.464 62.4869 108.534 62.4869Z" fill="white"/>
    <path d="M41.2285 64.248C41.2285 64.1379 41.3225 64.0278 41.4477 64.0278H43.9834C45.3608 64.0278 46.4877 65.1442 46.4877 66.5122C46.4877 67.9116 45.3608 69.0438 43.999 69.0438H42.3712V71.6854C42.3712 71.7955 42.2773 71.9055 42.152 71.9055H41.432C41.3068 71.9055 41.2129 71.8112 41.2129 71.6854V64.248H41.2285ZM43.9208 67.9431C44.6877 67.9431 45.3451 67.3141 45.3451 66.5122C45.3451 65.7417 44.7034 65.16 43.9208 65.16H42.3712V67.9431H43.9208Z" fill="white"/>
    <path d="M46.6595 71.6069L50.0874 64.0594C50.1187 63.9965 50.2283 63.9336 50.2752 63.9336H50.3848C50.4474 63.9336 50.5413 63.9965 50.5726 64.0594L53.9849 71.6069C54.0475 71.7484 53.9692 71.9056 53.797 71.9056H53.0927C52.9518 71.9056 52.8735 71.8427 52.8422 71.7327L52.1535 70.1917H48.5065C48.2874 70.7106 48.0526 71.2138 47.8178 71.7327C47.7865 71.8113 47.6926 71.9056 47.5674 71.9056H46.863C46.6752 71.8899 46.5813 71.7484 46.6595 71.6069ZM51.7153 69.2168L50.3378 66.1349H50.2752L48.9135 69.2168H51.7153Z" fill="white"/>
    <path d="M55.5508 64.248C55.5508 64.1379 55.6447 64.0278 55.7699 64.0278H58.8065C60.1526 64.0278 61.2483 65.0971 61.2483 66.4336C61.2483 67.4714 60.5596 68.3205 59.5891 68.7136L61.1231 71.5596C61.2013 71.7011 61.123 71.8898 60.9352 71.8898H60.0587C59.9648 71.8898 59.9022 71.8269 59.8865 71.7955L58.3995 68.8236H56.7091V71.6854C56.7091 71.7955 56.6151 71.9055 56.4899 71.9055H55.7699C55.6447 71.9055 55.5508 71.8112 55.5508 71.6854V64.248ZM58.7282 67.8487C59.4482 67.8487 60.09 67.2355 60.09 66.4493C60.09 65.726 59.4482 65.1128 58.7282 65.1128H56.7404V67.833H58.7282V67.8487Z" fill="white"/>
    <path d="M63.377 64.3113C63.377 64.1697 63.4865 64.0439 63.643 64.0439H64.2848C64.4257 64.0439 64.5509 64.1697 64.5509 64.3113V67.4246L67.697 64.154C67.744 64.0911 67.8222 64.0439 67.9162 64.0439H68.7614C68.9649 64.0439 69.0744 64.2798 68.9179 64.4528L65.6935 67.7548L69.1057 71.5443C69.1996 71.6543 69.137 71.9216 68.9023 71.9216H68.0101C67.9005 71.9216 67.8379 71.8745 67.8066 71.843L64.5509 68.1636V71.6543C64.5509 71.7959 64.4257 71.9216 64.2848 71.9216H63.643C63.4865 71.9216 63.377 71.7959 63.377 71.6543V64.3113Z" fill="white"/>
    <path d="M70.4362 70.7578C70.5301 70.6163 70.624 70.4433 70.7336 70.3018C70.8275 70.1603 70.984 70.1131 71.1093 70.2074C71.1719 70.2703 72.0328 70.9779 72.8936 70.9779C73.6606 70.9779 74.1615 70.5062 74.1615 69.9401C74.1615 69.264 73.5823 68.8394 72.471 68.3835C71.3284 67.896 70.4362 67.2985 70.4362 66.0091C70.4362 65.1286 71.1093 63.9336 72.878 63.9336C73.9893 63.9336 74.8345 64.5154 74.9441 64.594C75.038 64.6569 75.1163 64.8141 75.0067 64.9714C74.9128 65.1129 74.8189 65.2701 74.7249 65.3959C74.631 65.5374 74.4902 65.6161 74.3336 65.506C74.2554 65.4588 73.4728 64.9399 72.831 64.9399C71.8919 64.9399 71.5632 65.5374 71.5632 65.9463C71.5632 66.5909 72.0484 66.984 72.9875 67.3614C74.2867 67.896 75.398 68.5092 75.398 69.8772C75.398 71.0408 74.3649 72 72.9093 72C71.5475 72 70.6867 71.2767 70.4988 71.1194C70.4049 71.0251 70.3267 70.9465 70.4362 70.7578Z" fill="white"/>
  </g>
  <defs>
    <linearGradient id="paint0_linear_7821_196958" x1="58.0012" y1="1.27165" x2="58.0012" y2="34.8099" gradientUnits="userSpaceOnUse">
      <stop offset="0.1319" stop-color="#FEC057"/>
      <stop offset="0.8626" stop-color="#EE3124"/>
    </linearGradient>
    <clipPath id="clip0_7821_196958">
      <rect width="116" height="72" fill="white"/>
    </clipPath>
  </defs>
</svg>